# xmcd CD database file
#
# Track frame offsets:
#	150
#	22130
#	48545
#	64395
#	85313
#	104092
#	126955
#	145535
#	163725
#	182127
#	202443
#	218501
#	235607
#	250899
#	270671
#	287031
#
# Disc length: 4075 seconds
#
# Revision: 1
# Processed by: cddbd v1.5.2PL0 Copyright (c) Steve Scherf et al.
# Submitted via: CDex 1.70
#
DISCID=fb0fe910
DTITLE=Sarah McLachlan - Closer - The Best of Sarah McLachlan
DYEAR=2008
DGENRE=Country
TTITLE0=Vox
TTITLE1=The Path of Thorns (Terms)
TTITLE2=Into the Fire
TTITLE3=Possession
TTITLE4=Hold On
TTITLE5=Good Enough
TTITLE6=Building a Mystery
TTITLE7=Sweet Surrender
TTITLE8=Adia
TTITLE9=Angel
TTITLE10=I Will Remember You (live)
TTITLE11=Fallen
TTITLE12=Stupid
TTITLE13=World on Fire
TTITLE14=Don't Give Up on Us
TTITLE15=U Want Me 2
EXTD=YEAR: 2008
EXTT0=
EXTT1=
EXTT2=
EXTT3=
EXTT4=
EXTT5=
EXTT6=
EXTT7=
EXTT8=
EXTT9=
EXTT10=
EXTT11=
EXTT12=
EXTT13=
EXTT14=
EXTT15=
PLAYORDER=
